<svg width="55" height="55" viewBox="0 0 55 55" fill="none" xmlns="http://www.w3.org/2000/svg">
<path d="M53.375 0.75C48.3794 0.75 43.809 1.78959 39.6484 3.53906C38.366 4.11815 37.207 4.78172 36.1484 5.39844C30.9439 8.40297 26.5319 12.4257 22.9141 16.8828C22.1398 16.5528 21.3287 16.3277 20.5078 16.2266C17.5172 15.8578 14.2913 16.9525 11.2656 19.0703C7.23145 21.8939 3.45763 26.5525 0.929697 32.4688C0.576439 33.1899 1.69667 34.0413 2.29688 33.5078C5.95856 30.6676 8.81182 29.1482 10.8281 28.8047C12.6906 28.4875 13.8259 29.0142 14.7656 30.4453C14.6798 30.6469 14.575 30.8458 14.4922 31.0469C14.3409 31.3669 14.4094 31.7776 14.6563 32.0312L22.9688 40.2891C23.2014 40.5326 23.5817 40.6221 23.8984 40.5078C24.0981 40.4256 24.2997 40.3196 24.5 40.2344C25.9698 41.1817 26.4621 42.2846 26.1406 44.1719C25.7972 46.1882 24.3324 49.0414 21.4922 52.7031C21.1087 53.2993 21.7968 54.2168 22.4766 54.0156C28.3927 51.4876 33.1061 47.7685 35.9297 43.7344C38.6169 39.8952 39.6103 35.7084 38.1172 32.1406C43.2148 28.0597 47.7634 22.9339 50.8594 16.8281C51.3285 16.0157 51.3049 15.8033 51.5703 15.2422C53.2682 11.1269 54.25 6.53691 54.25 1.625C54.25 1.16686 53.8331 0.750046 53.375 0.75ZM52.3906 2.60938C52.2765 6.46689 51.5389 10.0982 50.3125 13.4375L41.5625 4.6875C44.907 3.44299 48.5228 2.72646 52.3906 2.60938ZM39.8125 5.39844L49.6563 15.2422L48.8906 16.7188L38.2813 6.21875C39.1676 5.70705 39.2856 5.68549 39.8125 5.39844ZM36.6953 7.14844L48.0156 18.3047C43.0624 26.6547 35.2408 32.9442 27.3984 36.9531C26.3824 37.4614 25.3574 37.9634 24.2813 38.4297C24.1047 38.5066 23.9105 38.5739 23.7344 38.6484L16.3516 31.2109C20.1524 22.2448 27.0525 12.8457 36.6953 7.14844ZM35.8203 15.625C34.8236 15.625 33.838 16.0215 33.0859 16.7734C31.5819 18.2776 31.582 20.7381 33.0859 22.2422C34.5899 23.7461 37.0506 23.7463 38.5547 22.2422C40.0588 20.7382 40.0587 18.2774 38.5547 16.7734C37.8027 16.0215 36.8171 15.625 35.8203 15.625ZM35.8203 17.375C36.3656 17.375 36.9339 17.5589 37.3516 17.9766C38.1868 18.8118 38.1868 20.1491 37.3516 20.9844C36.5163 21.8197 35.1243 21.8197 34.2891 20.9844C33.4538 20.1491 33.4538 18.8118 34.2891 17.9766C34.7067 17.5589 35.2751 17.375 35.8203 17.375ZM18.7031 17.9766C19.6886 17.9893 20.6385 18.2331 21.5469 18.5234C20.8669 19.4567 20.2227 20.4718 19.5781 21.4766C19.155 22.1216 18.7122 22.7925 18.3203 23.4453C17.7315 24.4473 17.1705 25.4947 16.625 26.5625C16.245 27.2938 15.9269 28.0189 15.5859 28.75C15.5581 28.8105 15.5043 28.8534 15.4766 28.9141C14.2072 27.5498 12.5913 26.7625 10.5547 27.1094C8.79957 27.4083 6.71195 28.5324 4.4297 30.0078C6.68282 25.986 9.33557 22.5322 12.25 20.4922C14.1006 19.197 15.9581 18.3496 17.7188 18.0312C18.0614 17.9693 18.3746 17.9723 18.7031 17.9766ZM13.0156 33.0156L12.4141 34.0547L10.8281 37.0078L10.5547 37.5547L10.9922 38.0469L17.0625 44.0625L17.5547 44.5L18.1016 44.1719L20.9453 42.5312L21.9297 41.9297L21.1094 41.1641L13.8359 33.8359L13.0156 33.0156ZM36.4766 33.4531C37.3575 36.2192 36.8095 39.4616 34.5078 42.75C32.4662 45.6669 29.0188 48.3161 24.9922 50.5703C26.4728 48.282 27.5911 46.2039 27.8906 44.4453C28.2351 42.4228 27.4299 40.791 26.0859 39.5234C27.0307 39.0875 27.9821 38.6571 28.9297 38.1562C29.8444 37.6799 30.6902 37.1875 31.5547 36.6797C33.2135 35.6921 34.8774 34.6384 36.4766 33.4531ZM13.3984 35.9141L19.0859 41.5469L17.8281 42.3125L12.6875 37.2266L13.3984 35.9141ZM10.1172 40.7266L5.96095 44.8828L6.83595 45.7031L10.9375 41.5469L10.1172 40.7266ZM11.8125 42.3672L5.14063 49.0391L5.96095 49.8594L12.6328 43.1875L11.8125 42.3672ZM13.4531 44.0625L8.47657 49.0391L9.29689 49.8594L14.2734 44.8828L13.4531 44.0625ZM5.14063 45.7031L4.32032 46.5234L5.14063 47.3438L5.96095 46.5234L5.14063 45.7031ZM4.32032 49.8594L3.50001 50.6797L4.32032 51.5L5.14063 50.6797L4.32032 49.8594ZM7.65626 49.8594L6.83595 50.6797L7.65626 51.5L8.47657 50.6797L7.65626 49.8594Z" fill="black"/>
</svg>
