<svg width="47" height="47" viewBox="0 0 47 47" fill="none" xmlns="http://www.w3.org/2000/svg">
<path d="M23.5 21.7522L42.2706 9.69375C41.516 9.12771 40.5996 8.81882 39.6562 8.8125H7.34374C6.40042 8.81882 5.48403 9.12771 4.72937 9.69375L23.5 21.7522Z" fill="white"/>
<path d="M24.2931 24.7337L24.0434 24.8512H23.9259C23.7907 24.9116 23.6471 24.9512 23.5 24.9687C23.3781 24.9841 23.2547 24.9841 23.1328 24.9687H23.0153L22.7656 24.8512L3.08437 12.1318C2.99034 12.4866 2.941 12.8517 2.9375 13.2187V33.7812C2.9375 34.9498 3.40173 36.0706 4.22806 36.8969C5.05439 37.7232 6.17514 38.1875 7.34375 38.1875H39.6562C40.8249 38.1875 41.9456 37.7232 42.7719 36.8969C43.5983 36.0706 44.0625 34.9498 44.0625 33.7812V13.2187C44.059 12.8517 44.0097 12.4866 43.9156 12.1318L24.2931 24.7337Z" fill="white"/>
</svg>
