<svg width="694" height="315" viewBox="0 0 694 315" fill="none" xmlns="http://www.w3.org/2000/svg">
<path opacity="0.28" d="M684.848 314.303H9.15198C4.18098 314.303 0.151978 310.274 0.151978 305.303C0.151978 300.332 4.18098 296.303 9.15198 296.303H684.848C689.819 296.303 693.848 300.332 693.848 305.303C693.848 310.273 689.818 314.303 684.848 314.303Z" fill="#848484"/>
<path d="M655.451 221.892C655.451 184.666 627.247 154.085 590.725 150.62V142.209H568.812V302.907H590.725V293.165C627.247 289.7 655.451 259.118 655.451 221.892ZM590.725 270.065V173.721C614.099 177.076 632.51 197.394 632.51 221.893C632.51 246.392 614.099 266.71 590.725 270.065Z" fill="#F09F54"/>
<path opacity="0.29" d="M590.725 150.62V142.209H568.812V302.907H590.725V293.165C627.247 289.7 655.451 259.119 655.451 221.893C655.451 184.667 627.247 154.085 590.725 150.62ZM590.725 285.805V294.142H570.273V149.513H590.725V157.979C622.865 161.086 648.767 188.51 648.767 221.891C648.767 255.274 622.865 282.698 590.725 285.805Z" fill="#F09F54"/>
<path d="M655.451 221.892C655.451 184.666 627.247 154.085 590.725 150.62V142.209H568.812V302.907H590.725V293.165C627.247 289.7 655.451 259.118 655.451 221.892ZM590.725 270.065V173.721C614.099 177.076 632.51 197.394 632.51 221.893C632.51 246.392 614.099 266.71 590.725 270.065Z" stroke="#444E59" stroke-width="4" stroke-miterlimit="10" stroke-linecap="round" stroke-linejoin="round"/>
<path d="M577.577 286.837H568.812" stroke="#444E59" stroke-width="3" stroke-miterlimit="10" stroke-linecap="round" stroke-linejoin="round"/>
<path d="M577.577 270.767H568.812" stroke="#444E59" stroke-width="3" stroke-miterlimit="10" stroke-linecap="round" stroke-linejoin="round"/>
<path d="M577.577 254.698H568.812" stroke="#444E59" stroke-width="3" stroke-miterlimit="10" stroke-linecap="round" stroke-linejoin="round"/>
<path d="M577.577 238.628H568.812" stroke="#444E59" stroke-width="3" stroke-miterlimit="10" stroke-linecap="round" stroke-linejoin="round"/>
<path d="M577.577 222.558H568.812" stroke="#444E59" stroke-width="3" stroke-miterlimit="10" stroke-linecap="round" stroke-linejoin="round"/>
<path d="M577.577 206.488H568.812" stroke="#444E59" stroke-width="3" stroke-miterlimit="10" stroke-linecap="round" stroke-linejoin="round"/>
<path d="M577.577 190.418H568.812" stroke="#444E59" stroke-width="3" stroke-miterlimit="10" stroke-linecap="round" stroke-linejoin="round"/>
<path d="M577.577 174.349H568.812" stroke="#444E59" stroke-width="3" stroke-miterlimit="10" stroke-linecap="round" stroke-linejoin="round"/>
<path d="M577.577 158.279H568.812" stroke="#444E59" stroke-width="3" stroke-miterlimit="10" stroke-linecap="round" stroke-linejoin="round"/>
<path d="M553.339 60.8909H520.257V302.534H553.339V60.8909Z" fill="#F09F54"/>
<path d="M553.339 60.8909H520.257V302.534H553.339V60.8909Z" fill="#F09F54"/>
<path opacity="0.29" d="M553.34 60.8909H538.956V302.534H553.34V60.8909Z" fill="#F09F54"/>
<path d="M553.339 60.8909H520.257V302.534H553.339V60.8909Z" stroke="#444E59" stroke-width="4" stroke-miterlimit="10" stroke-linecap="round" stroke-linejoin="round"/>
<path d="M531.764 278.082H520.257" stroke="#444E59" stroke-width="3" stroke-miterlimit="10" stroke-linecap="round" stroke-linejoin="round"/>
<path d="M527.449 289.589H520.257" stroke="#444E59" stroke-width="3" stroke-miterlimit="10" stroke-linecap="round" stroke-linejoin="round"/>
<path d="M531.764 255.069H520.257" stroke="#444E59" stroke-width="3" stroke-miterlimit="10" stroke-linecap="round" stroke-linejoin="round"/>
<path d="M527.449 266.576H520.257" stroke="#444E59" stroke-width="3" stroke-miterlimit="10" stroke-linecap="round" stroke-linejoin="round"/>
<path d="M531.764 232.055H520.257" stroke="#444E59" stroke-width="3" stroke-miterlimit="10" stroke-linecap="round" stroke-linejoin="round"/>
<path d="M527.449 243.562H520.257" stroke="#444E59" stroke-width="3" stroke-miterlimit="10" stroke-linecap="round" stroke-linejoin="round"/>
<path d="M531.764 209.041H520.257" stroke="#444E59" stroke-width="3" stroke-miterlimit="10" stroke-linecap="round" stroke-linejoin="round"/>
<path d="M527.449 220.548H520.257" stroke="#444E59" stroke-width="3" stroke-miterlimit="10" stroke-linecap="round" stroke-linejoin="round"/>
<path d="M531.764 186.028H520.257" stroke="#444E59" stroke-width="3" stroke-miterlimit="10" stroke-linecap="round" stroke-linejoin="round"/>
<path d="M527.449 197.535H520.257" stroke="#444E59" stroke-width="3" stroke-miterlimit="10" stroke-linecap="round" stroke-linejoin="round"/>
<path d="M531.764 163.014H520.257" stroke="#444E59" stroke-width="3" stroke-miterlimit="10" stroke-linecap="round" stroke-linejoin="round"/>
<path d="M527.449 174.521H520.257" stroke="#444E59" stroke-width="3" stroke-miterlimit="10" stroke-linecap="round" stroke-linejoin="round"/>
<path d="M531.764 140.001H520.257" stroke="#444E59" stroke-width="3" stroke-miterlimit="10" stroke-linecap="round" stroke-linejoin="round"/>
<path d="M527.449 151.507H520.257" stroke="#444E59" stroke-width="3" stroke-miterlimit="10" stroke-linecap="round" stroke-linejoin="round"/>
<path d="M531.764 116.987H520.257" stroke="#444E59" stroke-width="3" stroke-miterlimit="10" stroke-linecap="round" stroke-linejoin="round"/>
<path d="M527.449 128.494H520.257" stroke="#444E59" stroke-width="3" stroke-miterlimit="10" stroke-linecap="round" stroke-linejoin="round"/>
<path d="M531.764 93.9729H520.257" stroke="#444E59" stroke-width="3" stroke-miterlimit="10" stroke-linecap="round" stroke-linejoin="round"/>
<path d="M527.449 105.48H520.257" stroke="#444E59" stroke-width="3" stroke-miterlimit="10" stroke-linecap="round" stroke-linejoin="round"/>
<path d="M531.764 70.96H520.257" stroke="#444E59" stroke-width="3" stroke-miterlimit="10" stroke-linecap="round" stroke-linejoin="round"/>
<path d="M527.449 82.467H520.257" stroke="#444E59" stroke-width="3" stroke-miterlimit="10" stroke-linecap="round" stroke-linejoin="round"/>
<path d="M472.052 119.347H459.11V153.467H472.052V119.347Z" fill="#848484"/>
<path opacity="0.25" d="M463.89 119.347H459.11V153.467H463.89V119.347Z" fill="#848484"/>
<path d="M472.052 119.347H459.11V153.467H472.052V119.347Z" stroke="#444E59" stroke-width="4" stroke-miterlimit="10" stroke-linecap="round" stroke-linejoin="round"/>
<path d="M468.523 153.467H462.64V169.939H468.523V153.467Z" fill="white"/>
<path d="M468.523 153.467H462.64V169.939H468.523V153.467Z" stroke="#444E59" stroke-width="4" stroke-miterlimit="10" stroke-linecap="round" stroke-linejoin="round"/>
<path d="M455.637 184.732L425.643 302.417L471.219 186.273L455.637 184.732Z" fill="white"/>
<path d="M455.637 184.732L425.643 302.417L471.219 186.273L455.637 184.732Z" stroke="#444E59" stroke-width="4" stroke-miterlimit="10" stroke-linecap="round" stroke-linejoin="round"/>
<path d="M475.633 184.732L505.627 302.417L460.05 186.273L475.633 184.732Z" fill="white"/>
<path d="M475.633 184.732L505.627 302.417L460.05 186.273L475.633 184.732Z" stroke="#444E59" stroke-width="4" stroke-miterlimit="10" stroke-linecap="round" stroke-linejoin="round"/>
<path d="M465.64 207.766C476.686 207.766 485.641 198.811 485.641 187.765C485.641 176.719 476.686 167.764 465.64 167.764C454.594 167.764 445.639 176.719 445.639 187.765C445.639 198.811 454.594 207.766 465.64 207.766Z" fill="#71A850"/>
<path opacity="0.4" d="M451.218 187.765C451.218 177.668 458.707 169.341 468.429 167.981C467.515 167.853 466.589 167.764 465.639 167.764C454.593 167.764 445.638 176.719 445.638 187.765C445.638 198.811 454.593 207.766 465.639 207.766C466.588 207.766 467.515 207.677 468.429 207.549C458.708 206.189 451.218 197.862 451.218 187.765Z" fill="#71A850"/>
<path d="M465.64 207.766C476.686 207.766 485.641 198.811 485.641 187.765C485.641 176.719 476.686 167.764 465.64 167.764C454.594 167.764 445.639 176.719 445.639 187.765C445.639 198.811 454.594 207.766 465.64 207.766Z" stroke="#444E59" stroke-width="4" stroke-miterlimit="10" stroke-linecap="round" stroke-linejoin="round"/>
<path d="M465.64 194.541C469.382 194.541 472.416 191.508 472.416 187.765C472.416 184.023 469.382 180.989 465.64 180.989C461.898 180.989 458.864 184.023 458.864 187.765C458.864 191.508 461.898 194.541 465.64 194.541Z" fill="#444E59"/>
<path d="M465.64 194.541C469.382 194.541 472.416 191.508 472.416 187.765C472.416 184.023 469.382 180.989 465.64 180.989C461.898 180.989 458.864 184.023 458.864 187.765C458.864 191.508 461.898 194.541 465.64 194.541Z" stroke="#444E59" stroke-width="4" stroke-miterlimit="10" stroke-linecap="round" stroke-linejoin="round"/>
<path d="M393.416 302.168H261.416C253.684 302.168 247.416 295.9 247.416 288.168V16.168C247.416 8.43597 253.684 2.16797 261.416 2.16797H393.416C401.148 2.16797 407.416 8.43597 407.416 16.168V288.168C407.416 295.9 401.148 302.168 393.416 302.168Z" fill="#848484"/>
<path opacity="0.28" d="M393.416 2.16797H384.96C392.692 2.16797 398.96 8.43597 398.96 16.168V288.168C398.96 295.9 392.692 302.168 384.96 302.168H393.416C401.148 302.168 407.416 295.9 407.416 288.168V16.168C407.416 8.43597 401.148 2.16797 393.416 2.16797Z" fill="#848484"/>
<path opacity="0.48" d="M255.749 288.168V16.168C255.749 8.43597 262.017 2.16797 269.749 2.16797H261.416C253.684 2.16797 247.416 8.43597 247.416 16.168V288.168C247.416 295.9 253.684 302.168 261.416 302.168H269.749C262.017 302.168 255.749 295.9 255.749 288.168Z" fill="#848484"/>
<path d="M393.416 302.168H261.416C253.684 302.168 247.416 295.9 247.416 288.168V16.168C247.416 8.43597 253.684 2.16797 261.416 2.16797H393.416C401.148 2.16797 407.416 8.43597 407.416 16.168V288.168C407.416 295.9 401.148 302.168 393.416 302.168Z" stroke="#444E59" stroke-width="4" stroke-miterlimit="10" stroke-linecap="round" stroke-linejoin="round"/>
<path d="M407.415 263.704L407.415 39.7039L247.415 39.7039L247.415 263.704H407.415Z" fill="#E9FBFF"/>
<path d="M406.592 111.861H394.111C387.324 111.861 381.822 106.359 381.822 99.572V69.07C381.822 62.283 387.324 56.781 394.111 56.781H406.592V111.861Z" fill="#C9C9C9"/>
<path d="M256.566 235.527H247.416V138.255H256.566C263.454 138.255 269.038 143.839 269.038 150.727V223.056C269.038 229.944 263.454 235.527 256.566 235.527Z" fill="#C9C9C9"/>
<path d="M407.415 263.704L407.415 39.7039L247.415 39.7039L247.415 263.704H407.415Z" stroke="#444E59" stroke-width="4" stroke-miterlimit="10" stroke-linecap="round" stroke-linejoin="round"/>
<path d="M349.416 22.2041H356.416" stroke="#444E59" stroke-width="5" stroke-miterlimit="10" stroke-linecap="round" stroke-linejoin="round"/>
<path d="M298.416 22.2041H338.416" stroke="#444E59" stroke-width="5" stroke-miterlimit="10" stroke-linecap="round" stroke-linejoin="round"/>
<path opacity="0.29" d="M327.416 291.543C333.465 291.543 338.369 286.639 338.369 280.59C338.369 274.541 333.465 269.637 327.416 269.637C321.367 269.637 316.463 274.541 316.463 280.59C316.463 286.639 321.367 291.543 327.416 291.543Z" fill="#848484"/>
<path d="M327.416 288.992C332.056 288.992 335.818 285.23 335.818 280.59C335.818 275.95 332.056 272.188 327.416 272.188C322.776 272.188 319.014 275.95 319.014 280.59C319.014 285.23 322.776 288.992 327.416 288.992Z" fill="#444E59"/>
<g opacity="0.3">
<g opacity="0.3">
<g opacity="0.3">
<path opacity="0.3" d="M290.856 236.891H274.856C270.438 236.891 266.856 233.309 266.856 228.891V212.891C266.856 208.473 270.438 204.891 274.856 204.891H290.856C295.274 204.891 298.856 208.473 298.856 212.891V228.891C298.856 233.31 295.274 236.891 290.856 236.891Z" stroke="#444E59" stroke-width="2" stroke-linecap="round" stroke-linejoin="round" stroke-dasharray="4.08 4.08"/>
</g>
<g opacity="0.3">
<path opacity="0.3" d="M379.416 236.891H363.416C358.998 236.891 355.416 233.309 355.416 228.891V212.891C355.416 208.473 358.998 204.891 363.416 204.891H379.416C383.834 204.891 387.416 208.473 387.416 212.891V228.891C387.416 233.31 383.834 236.891 379.416 236.891Z" stroke="#444E59" stroke-width="2" stroke-linecap="round" stroke-linejoin="round" stroke-dasharray="4.08 4.08"/>
</g>
<g opacity="0.3">
<path opacity="0.3" d="M335.416 236.891H319.416C314.998 236.891 311.416 233.309 311.416 228.891V212.891C311.416 208.473 314.998 204.891 319.416 204.891H335.416C339.834 204.891 343.416 208.473 343.416 212.891V228.891C343.416 233.31 339.834 236.891 335.416 236.891Z" stroke="#444E59" stroke-width="2" stroke-linecap="round" stroke-linejoin="round" stroke-dasharray="4.08 4.08"/>
</g>
</g>
<g opacity="0.3">
<g opacity="0.3">
<path opacity="0.3" d="M290.856 188.891H274.856C270.438 188.891 266.856 185.309 266.856 180.891V164.891C266.856 160.473 270.438 156.891 274.856 156.891H290.856C295.274 156.891 298.856 160.473 298.856 164.891V180.891C298.856 185.31 295.274 188.891 290.856 188.891Z" stroke="#444E59" stroke-width="2" stroke-linecap="round" stroke-linejoin="round" stroke-dasharray="4.08 4.08"/>
</g>
<g opacity="0.3">
<path opacity="0.3" d="M379.416 188.891H363.416C358.998 188.891 355.416 185.309 355.416 180.891V164.891C355.416 160.473 358.998 156.891 363.416 156.891H379.416C383.834 156.891 387.416 160.473 387.416 164.891V180.891C387.416 185.31 383.834 188.891 379.416 188.891Z" stroke="#444E59" stroke-width="2" stroke-linecap="round" stroke-linejoin="round" stroke-dasharray="4.08 4.08"/>
</g>
<g opacity="0.3">
<path opacity="0.3" d="M335.416 188.891H319.416C314.998 188.891 311.416 185.309 311.416 180.891V164.891C311.416 160.473 314.998 156.891 319.416 156.891H335.416C339.834 156.891 343.416 160.473 343.416 164.891V180.891C343.416 185.31 339.834 188.891 335.416 188.891Z" stroke="#444E59" stroke-width="2" stroke-linecap="round" stroke-linejoin="round" stroke-dasharray="4.08 4.08"/>
</g>
</g>
<g opacity="0.3">
<g opacity="0.3">
<path opacity="0.3" d="M290.856 140.891H274.856C270.438 140.891 266.856 137.309 266.856 132.891V116.891C266.856 112.473 270.438 108.891 274.856 108.891H290.856C295.274 108.891 298.856 112.473 298.856 116.891V132.891C298.856 137.31 295.274 140.891 290.856 140.891Z" stroke="#444E59" stroke-width="2" stroke-linecap="round" stroke-linejoin="round" stroke-dasharray="4.08 4.08"/>
</g>
<g opacity="0.3">
<path opacity="0.3" d="M379.416 140.891H363.416C358.998 140.891 355.416 137.309 355.416 132.891V116.891C355.416 112.473 358.998 108.891 363.416 108.891H379.416C383.834 108.891 387.416 112.473 387.416 116.891V132.891C387.416 137.31 383.834 140.891 379.416 140.891Z" stroke="#444E59" stroke-width="2" stroke-linecap="round" stroke-linejoin="round" stroke-dasharray="4.08 4.08"/>
</g>
<g opacity="0.3">
<path opacity="0.3" d="M335.416 140.891H319.416C314.998 140.891 311.416 137.309 311.416 132.891V116.891C311.416 112.473 314.998 108.891 319.416 108.891H335.416C339.834 108.891 343.416 112.473 343.416 116.891V132.891C343.416 137.31 339.834 140.891 335.416 140.891Z" stroke="#444E59" stroke-width="2" stroke-linecap="round" stroke-linejoin="round" stroke-dasharray="4.08 4.08"/>
</g>
</g>
<g opacity="0.3">
<g opacity="0.3">
<path opacity="0.3" d="M290.856 92.8909H274.856C270.438 92.8909 266.856 89.3089 266.856 84.8909V68.8909C266.856 64.4729 270.438 60.8909 274.856 60.8909H290.856C295.274 60.8909 298.856 64.4729 298.856 68.8909V84.8909C298.856 89.3099 295.274 92.8909 290.856 92.8909Z" stroke="#444E59" stroke-width="2" stroke-linecap="round" stroke-linejoin="round" stroke-dasharray="4.08 4.08"/>
</g>
<g opacity="0.3">
<path opacity="0.3" d="M379.416 92.8909H363.416C358.998 92.8909 355.416 89.3089 355.416 84.8909V68.8909C355.416 64.4729 358.998 60.8909 363.416 60.8909H379.416C383.834 60.8909 387.416 64.4729 387.416 68.8909V84.8909C387.416 89.3099 383.834 92.8909 379.416 92.8909Z" stroke="#444E59" stroke-width="2" stroke-linecap="round" stroke-linejoin="round" stroke-dasharray="4.08 4.08"/>
</g>
<g opacity="0.3">
<path opacity="0.3" d="M335.416 92.8909H319.416C314.998 92.8909 311.416 89.3089 311.416 84.8909V68.8909C311.416 64.4729 314.998 60.8909 319.416 60.8909H335.416C339.834 60.8909 343.416 64.4729 343.416 68.8909V84.8909C343.416 89.3099 339.834 92.8909 335.416 92.8909Z" stroke="#444E59" stroke-width="2" stroke-linecap="round" stroke-linejoin="round" stroke-dasharray="4.08 4.08"/>
</g>
</g>
</g>
<path d="M290.856 236.891H274.856C270.438 236.891 266.856 233.309 266.856 228.891V212.891C266.856 208.473 270.438 204.891 274.856 204.891H290.856C295.274 204.891 298.856 208.473 298.856 212.891V228.891C298.856 233.31 295.274 236.891 290.856 236.891Z" fill="#71A850"/>
<path opacity="0.52" d="M290.851 204.891H274.851C271.647 204.891 268.89 206.78 267.613 209.5L298.851 215.125V212.89C298.851 208.473 295.27 204.891 290.851 204.891Z" fill="#5F8C42"/>
<path d="M290.856 236.891H274.856C270.438 236.891 266.856 233.309 266.856 228.891V212.891C266.856 208.473 270.438 204.891 274.856 204.891H290.856C295.274 204.891 298.856 208.473 298.856 212.891V228.891C298.856 233.31 295.274 236.891 290.856 236.891Z" stroke="#444E59" stroke-width="4" stroke-miterlimit="10" stroke-linecap="round" stroke-linejoin="round"/>
<path d="M335.416 236.891H319.416C314.998 236.891 311.416 233.309 311.416 228.891V212.891C311.416 208.473 314.998 204.891 319.416 204.891H335.416C339.834 204.891 343.416 208.473 343.416 212.891V228.891C343.416 233.31 339.834 236.891 335.416 236.891Z" fill="#F09F54"/>
<path opacity="0.52" d="M335.416 204.891H319.416C316.212 204.891 313.455 206.78 312.178 209.5L343.416 215.125V212.89C343.416 208.473 339.834 204.891 335.416 204.891Z" fill="#D38444"/>
<path d="M335.416 236.891H319.416C314.998 236.891 311.416 233.309 311.416 228.891V212.891C311.416 208.473 314.998 204.891 319.416 204.891H335.416C339.834 204.891 343.416 208.473 343.416 212.891V228.891C343.416 233.31 339.834 236.891 335.416 236.891Z" stroke="#444E59" stroke-width="4" stroke-miterlimit="10" stroke-linecap="round" stroke-linejoin="round"/>
<path d="M379.416 188.891H363.416C358.998 188.891 355.416 185.309 355.416 180.891V164.891C355.416 160.473 358.998 156.891 363.416 156.891H379.416C383.834 156.891 387.416 160.473 387.416 164.891V180.891C387.416 185.31 383.834 188.891 379.416 188.891Z" fill="#2FA9ED"/>
<path opacity="0.52" d="M379.416 156.891H363.416C360.212 156.891 357.455 158.78 356.178 161.5L387.416 167.125V164.89C387.416 160.473 383.834 156.891 379.416 156.891Z" fill="#288FBC"/>
<path d="M379.416 188.891H363.416C358.998 188.891 355.416 185.309 355.416 180.891V164.891C355.416 160.473 358.998 156.891 363.416 156.891H379.416C383.834 156.891 387.416 160.473 387.416 164.891V180.891C387.416 185.31 383.834 188.891 379.416 188.891Z" stroke="#444E59" stroke-width="4" stroke-miterlimit="10" stroke-linecap="round" stroke-linejoin="round"/>
<path d="M335.416 140.891H319.416C314.998 140.891 311.416 137.309 311.416 132.891V116.891C311.416 112.473 314.998 108.891 319.416 108.891H335.416C339.834 108.891 343.416 112.473 343.416 116.891V132.891C343.416 137.31 339.834 140.891 335.416 140.891Z" fill="#E7534E"/>
<path opacity="0.52" d="M335.416 108.891H319.416C316.212 108.891 313.455 110.78 312.178 113.5L343.416 119.125V116.89C343.416 112.473 339.834 108.891 335.416 108.891Z" fill="#BF4040"/>
<path d="M335.416 140.891H319.416C314.998 140.891 311.416 137.309 311.416 132.891V116.891C311.416 112.473 314.998 108.891 319.416 108.891H335.416C339.834 108.891 343.416 112.473 343.416 116.891V132.891C343.416 137.31 339.834 140.891 335.416 140.891Z" stroke="#444E59" stroke-width="4" stroke-miterlimit="10" stroke-linecap="round" stroke-linejoin="round"/>
<path d="M368.811 165.865L378.005 171.173C379.328 171.937 379.328 173.846 378.005 174.609L368.811 179.917C367.488 180.681 365.835 179.726 365.835 178.199V167.583C365.835 166.056 367.488 165.101 368.811 165.865Z" fill="white"/>
<path d="M331.63 214.683H323.201C321.411 214.683 319.959 216.134 319.959 217.925V224.111C319.959 225.901 321.41 227.353 323.201 227.353H323.457L322.759 230.151C322.708 230.355 322.939 230.513 323.111 230.391L327.373 227.354H331.63C333.42 227.354 334.872 225.903 334.872 224.112V217.926C334.872 216.134 333.42 214.683 331.63 214.683Z" fill="white"/>
<path d="M276.738 220.873L280.412 224.547C280.915 225.05 281.731 225.05 282.235 224.547L290.494 216.288" stroke="white" stroke-width="4" stroke-miterlimit="10" stroke-linecap="round" stroke-linejoin="round"/>
<path d="M327.416 132.347C331.534 132.347 334.872 129.009 334.872 124.891C334.872 120.773 331.534 117.435 327.416 117.435C323.298 117.435 319.96 120.773 319.96 124.891C319.96 129.009 323.298 132.347 327.416 132.347Z" stroke="white" stroke-width="4" stroke-miterlimit="10" stroke-linecap="round" stroke-linejoin="round"/>
<path d="M267.032 85.93L266.874 70.967L256.855 71.073C256.29 69.208 255.53 67.429 254.593 65.763L261.601 58.606L250.908 48.137L243.9 55.294C242.214 54.392 240.42 53.67 238.544 53.144L238.438 43.125L223.475 43.283L223.581 53.303C221.716 53.869 219.937 54.628 218.271 55.565L211.113 48.557L200.644 59.25L207.801 66.258C206.899 67.943 206.177 69.738 205.651 71.614L195.632 71.72L195.79 86.683L205.81 86.577C206.375 88.442 207.135 90.221 208.072 91.887L201.064 99.044L211.756 109.513L218.764 102.356C220.45 103.258 222.244 103.98 224.121 104.506L224.227 114.526L239.19 114.368L239.084 104.349C240.949 103.784 242.728 103.024 244.394 102.087L251.551 109.095L262.02 98.4L254.863 91.392C255.765 89.707 256.487 87.912 257.013 86.036L267.032 85.93ZM231.455 90.504C225.005 90.572 219.72 85.398 219.652 78.948C219.584 72.498 224.758 67.213 231.208 67.145C237.658 67.077 242.943 72.251 243.011 78.701C243.08 85.152 237.906 90.436 231.455 90.504Z" fill="white"/>
<path d="M267.032 85.93L266.874 70.967L256.855 71.073C256.29 69.208 255.53 67.429 254.593 65.763L261.601 58.606L250.908 48.137L243.9 55.294C242.214 54.392 240.42 53.67 238.544 53.144L238.438 43.125L223.475 43.283L223.581 53.303C221.716 53.869 219.937 54.628 218.271 55.565L211.113 48.557L200.644 59.25L207.801 66.258C206.899 67.943 206.177 69.738 205.651 71.614L195.632 71.72L195.79 86.683L205.81 86.577C206.375 88.442 207.135 90.221 208.072 91.887L201.064 99.044L211.756 109.513L218.764 102.356C220.45 103.258 222.244 103.98 224.121 104.506L224.227 114.526L239.19 114.368L239.084 104.349C240.949 103.784 242.728 103.024 244.394 102.087L251.551 109.095L262.02 98.4L254.863 91.392C255.765 89.707 256.487 87.912 257.013 86.036L267.032 85.93ZM231.455 90.504C225.005 90.572 219.72 85.398 219.652 78.948C219.584 72.498 224.758 67.213 231.208 67.145C237.658 67.077 242.943 72.251 243.011 78.701C243.08 85.152 237.906 90.436 231.455 90.504Z" fill="#F09F54"/>
<path d="M267.032 85.93L266.874 70.967L256.855 71.073C256.29 69.208 255.53 67.429 254.593 65.763L261.601 58.606L250.908 48.137L243.9 55.294C242.214 54.392 240.42 53.67 238.544 53.144L238.438 43.125L223.475 43.283L223.581 53.303C221.716 53.869 219.937 54.628 218.271 55.565L211.113 48.557L200.644 59.25L207.801 66.258C206.899 67.943 206.177 69.738 205.651 71.614L195.632 71.72L195.79 86.683L205.81 86.577C206.375 88.442 207.135 90.221 208.072 91.887L201.064 99.044L211.756 109.513L218.764 102.356C220.45 103.258 222.244 103.98 224.121 104.506L224.227 114.526L239.19 114.368L239.084 104.349C240.949 103.784 242.728 103.024 244.394 102.087L251.551 109.095L262.02 98.4L254.863 91.392C255.765 89.707 256.487 87.912 257.013 86.036L267.032 85.93ZM231.455 90.504C225.005 90.572 219.72 85.398 219.652 78.948C219.584 72.498 224.758 67.213 231.208 67.145C237.658 67.077 242.943 72.251 243.011 78.701C243.08 85.152 237.906 90.436 231.455 90.504Z" fill="#F09F54"/>
<g opacity="0.29">
<path opacity="0.29" d="M263.157 71.0061C263.164 71.0281 263.172 71.0501 263.179 71.0721L266.875 71.0331L266.874 70.9661L263.157 71.0061Z" fill="#F09F54"/>
<path opacity="0.29" d="M250.224 55.294L254.136 51.298L250.907 48.136L245.74 53.414C247.3 53.909 248.803 54.533 250.224 55.294Z" fill="#F09F54"/>
<path opacity="0.29" d="M237.533 67.1449C236.482 67.1559 235.471 67.318 234.505 67.589C239.366 68.96 242.955 73.395 243.011 78.702C243.068 84.102 239.446 88.672 234.482 90.061C235.53 90.357 236.635 90.517 237.779 90.505C244.23 90.437 249.403 85.153 249.335 78.702C249.267 72.251 243.984 67.0769 237.533 67.1449Z" fill="#F09F54"/>
<path opacity="0.29" d="M222.613 53.624L224.595 55.564C226.261 54.626 228.04 53.867 229.905 53.302L229.799 43.282L238.438 43.191L238.437 43.124L223.474 43.282L223.58 53.302C223.254 53.401 222.934 53.513 222.613 53.624Z" fill="#F09F54"/>
<path opacity="0.29" d="M230.445 104.504C228.569 103.978 226.774 103.256 225.088 102.354L223.248 104.234C223.538 104.326 223.826 104.422 224.12 104.504L224.226 114.524L230.55 114.457L230.445 104.504Z" fill="#F09F54"/>
<path opacity="0.29" d="M201.957 71.7191L211.976 71.6132C212.502 69.7372 213.223 67.9421 214.126 66.2571L206.969 59.2491L214.342 51.7181L211.113 48.5562L200.644 59.2491L207.801 66.2571C206.899 67.9421 206.177 69.7372 205.651 71.6132L195.632 71.7191L195.79 86.6822L202.114 86.6151L201.957 71.7191Z" fill="#F09F54"/>
<path opacity="0.29" d="M250.718 102.084C249.343 102.858 247.888 103.502 246.375 104.024L251.551 109.092L254.647 105.93L250.718 102.084Z" fill="#F09F54"/>
<path opacity="0.29" d="M207.389 99.0429L214.397 91.8859C213.459 90.2199 212.7 88.4409 212.135 86.5759L205.833 86.6419C206.396 88.4819 207.147 90.2389 208.073 91.8849L201.065 99.0419L211.757 109.511L214.853 106.349L207.389 99.0429Z" fill="#F09F54"/>
</g>
<path d="M267.032 85.93L266.874 70.967L256.855 71.073C256.29 69.208 255.53 67.429 254.593 65.763L261.601 58.606L250.908 48.137L243.9 55.294C242.214 54.392 240.42 53.67 238.544 53.144L238.438 43.125L223.475 43.283L223.581 53.303C221.716 53.869 219.937 54.628 218.271 55.565L211.113 48.557L200.644 59.25L207.801 66.258C206.899 67.943 206.177 69.738 205.651 71.614L195.632 71.72L195.79 86.683L205.81 86.577C206.375 88.442 207.135 90.221 208.072 91.887L201.064 99.044L211.756 109.513L218.764 102.356C220.45 103.258 222.244 103.98 224.121 104.506L224.227 114.526L239.19 114.368L239.084 104.349C240.949 103.784 242.728 103.024 244.394 102.087L251.551 109.095L262.02 98.4L254.863 91.392C255.765 89.707 256.487 87.912 257.013 86.036L267.032 85.93ZM231.455 90.504C225.005 90.572 219.72 85.398 219.652 78.948C219.584 72.498 224.758 67.213 231.208 67.145C237.658 67.077 242.943 72.251 243.011 78.701C243.08 85.152 237.906 90.436 231.455 90.504Z" stroke="#444E59" stroke-width="4" stroke-miterlimit="10" stroke-linecap="round" stroke-linejoin="round"/>
<path d="M204.531 302.168H80.775C76.711 302.168 73.416 298.873 73.416 294.809V210.17C73.416 206.106 76.711 202.811 80.775 202.811H204.532C208.596 202.811 211.891 206.106 211.891 210.17V294.809C211.891 298.873 208.596 302.168 204.531 302.168Z" fill="#444E59"/>
<path d="M211.891 218.891H73.416V210.17C73.416 206.106 76.711 202.811 80.775 202.811H204.531C208.596 202.811 211.891 206.106 211.891 210.171V218.891Z" fill="#BCBCBC"/>
<path d="M204.531 302.168H80.775C76.711 302.168 73.416 298.873 73.416 294.809V210.17C73.416 206.106 76.711 202.811 80.775 202.811H204.532C208.596 202.811 211.891 206.106 211.891 210.17V294.809C211.891 298.873 208.596 302.168 204.531 302.168Z" stroke="#444E59" stroke-width="4" stroke-miterlimit="10" stroke-linecap="round" stroke-linejoin="round"/>
<path d="M204.531 302.168H80.775C76.711 302.168 73.416 298.873 73.416 294.809V210.17C73.416 206.106 76.711 202.811 80.775 202.811H204.532C208.596 202.811 211.891 206.106 211.891 210.17V294.809C211.891 298.873 208.596 302.168 204.531 302.168Z" stroke="#444E59" stroke-width="4" stroke-miterlimit="10" stroke-linecap="round" stroke-linejoin="round"/>
<path d="M211.891 218.891H73.416V210.17C73.416 206.106 76.711 202.811 80.775 202.811H204.531C208.596 202.811 211.891 206.106 211.891 210.171V218.891Z" stroke="#444E59" stroke-width="4" stroke-miterlimit="10" stroke-linecap="round" stroke-linejoin="round"/>
<path d="M92.54 289.494H108.12" stroke="white" stroke-width="4" stroke-miterlimit="10" stroke-linecap="round" stroke-linejoin="round"/>
<path d="M81.507 289.494H82.594" stroke="white" stroke-width="4" stroke-miterlimit="10" stroke-linecap="round" stroke-linejoin="round"/>
<path d="M92.54 280.87H132.024" stroke="white" stroke-width="4" stroke-miterlimit="10" stroke-linecap="round" stroke-linejoin="round"/>
<path d="M81.507 280.87H82.594" stroke="white" stroke-width="4" stroke-miterlimit="10" stroke-linecap="round" stroke-linejoin="round"/>
<path d="M150.827 272.245H161.57" stroke="#64BDFF" stroke-width="4" stroke-miterlimit="10" stroke-linecap="round" stroke-linejoin="round"/>
<path d="M121.414 272.245H141.426" stroke="white" stroke-width="4" stroke-miterlimit="10" stroke-linecap="round" stroke-linejoin="round"/>
<path d="M92.54 272.245H112.282" stroke="#FF5F5F" stroke-width="4" stroke-miterlimit="10" stroke-linecap="round" stroke-linejoin="round"/>
<path d="M81.507 272.245H82.594" stroke="white" stroke-width="4" stroke-miterlimit="10" stroke-linecap="round" stroke-linejoin="round"/>
<path d="M125.846 263.62H174.009" stroke="white" stroke-width="4" stroke-miterlimit="10" stroke-linecap="round" stroke-linejoin="round"/>
<path d="M92.54 263.62H117.654" stroke="#64BDFF" stroke-width="4" stroke-miterlimit="10" stroke-linecap="round" stroke-linejoin="round"/>
<path d="M81.507 263.62H82.594" stroke="white" stroke-width="4" stroke-miterlimit="10" stroke-linecap="round" stroke-linejoin="round"/>
<path d="M125.846 254.995H143.842" stroke="#FF5F5F" stroke-width="4" stroke-miterlimit="10" stroke-linecap="round" stroke-linejoin="round"/>
<path d="M92.54 254.995H117.654" stroke="#FFBE78" stroke-width="4" stroke-miterlimit="10" stroke-linecap="round" stroke-linejoin="round"/>
<path d="M81.507 254.995H82.594" stroke="white" stroke-width="4" stroke-miterlimit="10" stroke-linecap="round" stroke-linejoin="round"/>
<path d="M129.338 246.37H134.173" stroke="#64BDFF" stroke-width="4" stroke-miterlimit="10" stroke-linecap="round" stroke-linejoin="round"/>
<path d="M110.268 246.37H121.415" stroke="#FF5F5F" stroke-width="4" stroke-miterlimit="10" stroke-linecap="round" stroke-linejoin="round"/>
<path d="M92.54 246.37H101.672" stroke="#C383F2" stroke-width="4" stroke-miterlimit="10" stroke-linecap="round" stroke-linejoin="round"/>
<path d="M81.507 246.37H82.594" stroke="white" stroke-width="4" stroke-miterlimit="10" stroke-linecap="round" stroke-linejoin="round"/>
<path d="M165.331 237.745H174.009" stroke="#64BDFF" stroke-width="4" stroke-miterlimit="10" stroke-linecap="round" stroke-linejoin="round"/>
<path d="M120.206 237.745H154.319" stroke="#FF5F5F" stroke-width="4" stroke-miterlimit="10" stroke-linecap="round" stroke-linejoin="round"/>
<path d="M92.54 237.745H112.82" stroke="#FFBE78" stroke-width="4" stroke-miterlimit="10" stroke-linecap="round" stroke-linejoin="round"/>
<path d="M81.507 237.745H82.594" stroke="white" stroke-width="4" stroke-miterlimit="10" stroke-linecap="round" stroke-linejoin="round"/>
<path d="M143.842 229.12H161.57" stroke="#FFBE78" stroke-width="4" stroke-miterlimit="10" stroke-linecap="round" stroke-linejoin="round"/>
<path d="M121.415 229.12H135.248" stroke="#6DBF7B" stroke-width="4" stroke-miterlimit="10" stroke-linecap="round" stroke-linejoin="round"/>
<path d="M106.373 229.12H114.163" stroke="#FFBE78" stroke-width="4" stroke-miterlimit="10" stroke-linecap="round" stroke-linejoin="round"/>
<path d="M92.54 229.12H98.8521" stroke="#6DBF7B" stroke-width="4" stroke-miterlimit="10" stroke-linecap="round" stroke-linejoin="round"/>
<path d="M81.507 229.12H82.594" stroke="white" stroke-width="4" stroke-miterlimit="10" stroke-linecap="round" stroke-linejoin="round"/>
<path d="M87.068 213.384C88.4675 213.384 89.602 212.249 89.602 210.85C89.602 209.45 88.4675 208.316 87.068 208.316C85.6685 208.316 84.534 209.45 84.534 210.85C84.534 212.249 85.6685 213.384 87.068 213.384Z" fill="#E7534E"/>
<path d="M96.141 213.384C97.5405 213.384 98.675 212.249 98.675 210.85C98.675 209.45 97.5405 208.316 96.141 208.316C94.7415 208.316 93.607 209.45 93.607 210.85C93.607 212.249 94.7415 213.384 96.141 213.384Z" fill="#444E59"/>
<path d="M105.214 213.384C106.613 213.384 107.748 212.249 107.748 210.85C107.748 209.45 106.613 208.316 105.214 208.316C103.814 208.316 102.68 209.45 102.68 210.85C102.68 212.249 103.814 213.384 105.214 213.384Z" fill="#444E59"/>
<path d="M253.786 227.704H164.199C159.781 227.704 156.199 224.122 156.199 219.704V138.85C156.199 134.432 159.781 130.85 164.199 130.85H253.786C258.204 130.85 261.786 134.432 261.786 138.85V219.703C261.786 224.122 258.204 227.704 253.786 227.704Z" fill="white"/>
<path d="M253.786 227.704H164.199C159.781 227.704 156.199 224.122 156.199 219.704V138.85C156.199 134.432 159.781 130.85 164.199 130.85H253.786C258.204 130.85 261.786 134.432 261.786 138.85V219.703C261.786 224.122 258.204 227.704 253.786 227.704Z" fill="white"/>
<path d="M253.786 227.704H164.199C159.781 227.704 156.199 224.122 156.199 219.704V138.85C156.199 134.432 159.781 130.85 164.199 130.85H253.786C258.204 130.85 261.786 134.432 261.786 138.85V219.703C261.786 224.122 258.204 227.704 253.786 227.704Z" stroke="#444E59" stroke-width="4" stroke-miterlimit="10" stroke-linecap="round" stroke-linejoin="round"/>
<path d="M252.082 139.037H165.331V196.704H252.082V139.037Z" fill="#9483C4"/>
<path d="M252.082 139.037H165.331V196.704H252.082V139.037Z" stroke="#444E59" stroke-width="4" stroke-miterlimit="10" stroke-linecap="round" stroke-linejoin="round"/>
<path d="M165.331 205.891H220.082" stroke="#444E59" stroke-width="4" stroke-miterlimit="10" stroke-linecap="round" stroke-linejoin="round"/>
<path d="M165.331 215.126H197.749" stroke="#444E59" stroke-width="4" stroke-miterlimit="10" stroke-linecap="round" stroke-linejoin="round"/>
<path d="M174.009 186.37L192.707 167.87L210.099 185.263" stroke="#444E59" stroke-width="4" stroke-miterlimit="10" stroke-linecap="round" stroke-linejoin="round"/>
<path d="M242.749 186.37L220.082 156.891L201.957 177.12" stroke="#444E59" stroke-width="4" stroke-miterlimit="10" stroke-linecap="round" stroke-linejoin="round"/>
<path d="M242.508 214.992C245.218 214.992 247.415 212.795 247.415 210.085C247.415 207.375 245.218 205.178 242.508 205.178C239.798 205.178 237.601 207.375 237.601 210.085C237.601 212.795 239.798 214.992 242.508 214.992Z" stroke="#444E59" stroke-width="4" stroke-miterlimit="10" stroke-linecap="round" stroke-linejoin="round"/>
<path d="M198.21 163.079C201.61 163.079 204.366 160.323 204.366 156.923C204.366 153.523 201.61 150.767 198.21 150.767C194.81 150.767 192.054 153.523 192.054 156.923C192.054 160.323 194.81 163.079 198.21 163.079Z" fill="#F09F54"/>
<path d="M198.21 163.079C201.61 163.079 204.366 160.323 204.366 156.923C204.366 153.523 201.61 150.767 198.21 150.767C194.81 150.767 192.054 153.523 192.054 156.923C192.054 160.323 194.81 163.079 198.21 163.079Z" stroke="#444E59" stroke-width="4" stroke-miterlimit="10" stroke-linecap="round" stroke-linejoin="round"/>
<path d="M154.513 102.316H181.29" stroke="#444E59" stroke-width="4" stroke-miterlimit="10" stroke-linecap="round" stroke-linejoin="round"/>
<path d="M140.227 102.316H147.301" stroke="#444E59" stroke-width="4" stroke-miterlimit="10" stroke-linecap="round" stroke-linejoin="round"/>
<path d="M167.902 89.8909H181.29" stroke="#444E59" stroke-width="4" stroke-miterlimit="10" stroke-linecap="round" stroke-linejoin="round"/>
<path d="M157.124 89.8909H161.123" stroke="#444E59" stroke-width="4" stroke-miterlimit="10" stroke-linecap="round" stroke-linejoin="round"/>
<path d="M125.512 180.734H146.378" stroke="#444E59" stroke-width="4" stroke-miterlimit="10" stroke-linecap="round" stroke-linejoin="round"/>
<path d="M114.381 180.734H119.893" stroke="#444E59" stroke-width="4" stroke-miterlimit="10" stroke-linecap="round" stroke-linejoin="round"/>
<path d="M137.868 168.308H146.378" stroke="#444E59" stroke-width="4" stroke-miterlimit="10" stroke-linecap="round" stroke-linejoin="round"/>
<path d="M127.547 168.308H130.663" stroke="#444E59" stroke-width="4" stroke-miterlimit="10" stroke-linecap="round" stroke-linejoin="round"/>
<path d="M458.773 35.6292H478.638" stroke="#444E59" stroke-width="4" stroke-miterlimit="10" stroke-linecap="round" stroke-linejoin="round"/>
<path d="M446.641 35.6292H452.153" stroke="#444E59" stroke-width="4" stroke-miterlimit="10" stroke-linecap="round" stroke-linejoin="round"/>
<path d="M470.128 23.2041H478.638" stroke="#444E59" stroke-width="4" stroke-miterlimit="10" stroke-linecap="round" stroke-linejoin="round"/>
<path d="M459.807 23.2041H462.924" stroke="#444E59" stroke-width="4" stroke-miterlimit="10" stroke-linecap="round" stroke-linejoin="round"/>
<path d="M474.219 105.48H396.035C391.275 105.48 387.415 101.621 387.415 96.8599V59.0199C387.415 54.2599 391.274 50.3999 396.035 50.3999H474.219C478.979 50.3999 482.839 54.2589 482.839 59.0199V96.8599C482.839 101.621 478.979 105.48 474.219 105.48Z" fill="#2FA9ED"/>
<path d="M474.219 105.48H396.035C391.275 105.48 387.415 101.621 387.415 96.8599V59.0199C387.415 54.2599 391.274 50.3999 396.035 50.3999H474.219C478.979 50.3999 482.839 54.2589 482.839 59.0199V96.8599C482.839 101.621 478.979 105.48 474.219 105.48Z" stroke="#444E59" stroke-width="3" stroke-miterlimit="10" stroke-linecap="round" stroke-linejoin="round"/>
<path opacity="0.56" d="M435.127 65.2H468.914" stroke="white" stroke-width="3" stroke-miterlimit="10" stroke-linecap="round" stroke-linejoin="round"/>
<path opacity="0.56" d="M435.127 76.0791H457.483" stroke="white" stroke-width="3" stroke-miterlimit="10" stroke-linecap="round" stroke-linejoin="round"/>
<g opacity="0.56">
<path opacity="0.56" d="M452.111 92.3999H438.461C436.62 92.3999 435.127 90.9069 435.127 89.0659C435.127 87.2249 436.62 85.7319 438.461 85.7319H452.111C453.952 85.7319 455.445 87.2249 455.445 89.0659C455.444 90.9069 453.952 92.3999 452.111 92.3999Z" fill="white"/>
<path opacity="0.56" d="M452.111 92.3999H438.461C436.62 92.3999 435.127 90.9069 435.127 89.0659C435.127 87.2249 436.62 85.7319 438.461 85.7319H452.111C453.952 85.7319 455.445 87.2249 455.445 89.0659C455.444 90.9069 453.952 92.3999 452.111 92.3999Z" stroke="white" stroke-width="3" stroke-miterlimit="10" stroke-linecap="round" stroke-linejoin="round"/>
</g>
<path d="M421.007 92.8911H403.1C400.54 92.8911 398.464 90.8161 398.464 88.2551V67.3411C398.464 64.7811 400.539 62.7051 403.1 62.7051H421.007C423.567 62.7051 425.643 64.7801 425.643 67.3411V88.2551C425.643 90.8161 423.567 92.8911 421.007 92.8911Z" stroke="white" stroke-width="3" stroke-miterlimit="10" stroke-linecap="round" stroke-linejoin="round"/>
<path d="M412.054 79.172C414.699 79.172 416.844 77.0275 416.844 74.382C416.844 71.7366 414.699 69.592 412.054 69.592C409.409 69.592 407.264 71.7366 407.264 74.382C407.264 77.0275 409.409 79.172 412.054 79.172Z" stroke="white" stroke-width="3" stroke-miterlimit="10" stroke-linecap="round" stroke-linejoin="round"/>
<path d="M402.975 92.4C402.975 87.386 407.04 83.321 412.054 83.321C417.068 83.321 421.133 87.386 421.133 92.4" stroke="white" stroke-width="3" stroke-miterlimit="10" stroke-linecap="round" stroke-linejoin="round"/>
</svg>
