<svg width="639" height="324" viewBox="0 0 639 324" fill="none" xmlns="http://www.w3.org/2000/svg">
<path d="M629.493 323.303H9.16101C4.19001 323.303 0.161011 319.274 0.161011 314.303C0.161011 309.332 4.19001 305.303 9.16101 305.303H629.493C634.464 305.303 638.493 309.332 638.493 314.303C638.493 319.273 634.463 323.303 629.493 323.303Z" fill="#C9C9C9"/>
<path d="M125.891 230.289C116.328 230.289 108.549 222.509 108.549 212.946C108.549 203.383 116.329 195.604 125.891 195.604H223.925V230.289H125.891Z" fill="#CECECE"/>
<path d="M229.603 236.289H125.891C112.999 236.289 102.549 225.838 102.549 212.947C102.549 200.055 113 189.605 125.891 189.605H229.603V236.289Z" fill="white"/>
<path d="M119.549 207.567H223.925" stroke="#1F3969" stroke-width="4" stroke-miterlimit="10" stroke-linecap="round" stroke-linejoin="round"/>
<path d="M119.549 218.158H223.925" stroke="#1F3969" stroke-width="4" stroke-miterlimit="10" stroke-linecap="round" stroke-linejoin="round"/>
<path d="M125.891 230.289C116.328 230.289 108.549 222.509 108.549 212.946C108.549 203.383 116.329 195.604 125.891 195.604H223.925V230.289H125.891Z" stroke="#1F3969" stroke-width="4" stroke-miterlimit="10" stroke-linecap="round" stroke-linejoin="round"/>
<path d="M125.891 230.289C116.328 230.289 108.549 222.509 108.549 212.946C108.549 203.383 116.329 195.604 125.891 195.604H225.603L229.603 189.604H125.891C112.999 189.604 102.549 200.055 102.549 212.946C102.549 225.838 113 236.288 125.891 236.288H229.603L225.603 230.288H125.891V230.289Z" fill="#FF3E3E"/>
<path d="M125.891 230.289C116.328 230.289 108.549 222.509 108.549 212.946C108.549 203.383 116.329 195.604 125.891 195.604H225.603L229.603 189.604H125.891C112.999 189.604 102.549 200.055 102.549 212.946C102.549 225.838 113 236.288 125.891 236.288H229.603L225.603 230.288H125.891V230.289Z" stroke="#1F3969" stroke-width="4" stroke-miterlimit="10" stroke-linecap="round" stroke-linejoin="round"/>
<path opacity="0.28" d="M207.305 189.604H188.914V236.289H207.305V189.604Z" fill="#1F3969" stroke="#1F3969" stroke-width="4" stroke-miterlimit="10" stroke-linecap="round" stroke-linejoin="round"/>
<path d="M218.935 274.846H29.032C25.298 274.846 22.271 271.819 22.271 268.085V243.05C22.271 239.316 25.298 236.289 29.032 236.289H218.935C222.669 236.289 225.696 239.316 225.696 243.05V268.084C225.696 271.819 222.669 274.846 218.935 274.846Z" fill="#50B56F"/>
<path d="M218.935 274.846H29.032C25.298 274.846 22.271 271.819 22.271 268.085V243.05C22.271 239.316 25.298 236.289 29.032 236.289H218.935C222.669 236.289 225.696 239.316 225.696 243.05V268.084C225.696 271.819 222.669 274.846 218.935 274.846Z" stroke="#1F3969" stroke-width="4" stroke-miterlimit="10" stroke-linecap="round" stroke-linejoin="round"/>
<path opacity="0.28" d="M218.935 236.289H188.914V251.285C188.914 260.708 196.553 268.346 205.975 268.346H225.683C225.686 268.258 225.696 268.173 225.696 268.084V243.05C225.696 239.316 222.669 236.289 218.935 236.289Z" fill="#1F3969" stroke="#1F3969" stroke-width="4" stroke-miterlimit="10" stroke-linecap="round" stroke-linejoin="round"/>
<path d="M272.39 282.587H52.442C53.724 285.837 54.473 289.742 54.473 293.945C54.473 298.148 53.724 302.053 52.442 305.303H272.39C271.108 302.053 270.359 298.148 270.359 293.945C270.36 289.742 271.108 285.837 272.39 282.587Z" fill="#CECECE"/>
<path d="M278.355 276.543H46.485V282.587H278.355V276.543Z" fill="#5F5AFF"/>
<path d="M278.355 276.543H46.485V282.587H278.355V276.543Z" stroke="#1F3969" stroke-width="4" stroke-miterlimit="10" stroke-linecap="round" stroke-linejoin="round"/>
<path d="M278.355 305.303H46.485V311.347H278.355V305.303Z" fill="#F6F9FD"/>
<path d="M278.355 305.303H46.485V311.347H278.355V305.303Z" fill="#5F5AFF"/>
<path d="M278.355 305.303H46.485V311.347H278.355V305.303Z" stroke="#1F3969" stroke-width="4" stroke-miterlimit="10" stroke-linecap="round" stroke-linejoin="round"/>
<path d="M393.631 289.998L390.617 256.346H341.21L338.196 289.998C337.496 297.814 332.792 305.303 325.419 311.274L325.41 311.346H406.417L406.408 311.274C399.035 305.303 394.331 297.814 393.631 289.998Z" fill="#BFCFE2"/>
<path opacity="0.28" d="M341.21 256.346L339.401 276.543H392.426L390.618 256.346H341.21Z" fill="#1F3969" stroke="#1F3969" stroke-width="4" stroke-miterlimit="10" stroke-linecap="round" stroke-linejoin="round"/>
<path d="M393.631 289.998L390.617 256.346H341.21L338.196 289.998C337.496 297.814 332.792 305.303 325.419 311.274L325.41 311.346H406.417L406.408 311.274C399.035 305.303 394.331 297.814 393.631 289.998Z" stroke="#1F3969" stroke-width="4" stroke-miterlimit="10" stroke-linecap="round" stroke-linejoin="round"/>
<path d="M523.914 261.346H207.914C201.287 261.346 195.914 255.973 195.914 249.346V43.3457C195.914 36.7187 201.287 31.3457 207.914 31.3457H523.914C530.541 31.3457 535.914 36.7187 535.914 43.3457V249.346C535.914 255.974 530.541 261.346 523.914 261.346Z" fill="white"/>
<path d="M523.914 261.346H207.914C201.287 261.346 195.914 255.973 195.914 249.346V43.3457C195.914 36.7187 201.287 31.3457 207.914 31.3457H523.914C530.541 31.3457 535.914 36.7187 535.914 43.3457V249.346C535.914 255.974 530.541 261.346 523.914 261.346Z" fill="#BFCFE2"/>
<path d="M523.914 261.346H207.914C201.287 261.346 195.914 255.973 195.914 249.346V43.3457C195.914 36.7187 201.287 31.3457 207.914 31.3457H523.914C530.541 31.3457 535.914 36.7187 535.914 43.3457V249.346C535.914 255.974 530.541 261.346 523.914 261.346Z" stroke="#1F3969" stroke-width="4" stroke-miterlimit="10" stroke-linecap="round" stroke-linejoin="round"/>
<path d="M518.914 222.937V48.3457L212.914 48.3457L212.914 222.937L518.914 222.937Z" fill="#F6F9FD"/>
<path opacity="0.28" d="M223.928 31.3457V169.939C223.928 174.357 227.51 177.939 231.928 177.939H421.001C425.419 177.939 429.001 174.357 429.001 169.939V31.3457H223.928Z" fill="#1F3969" stroke="#1F3969" stroke-width="4" stroke-miterlimit="10" stroke-linecap="round" stroke-linejoin="round"/>
<path d="M518.914 222.937V48.3457L212.914 48.3457L212.914 222.937L518.914 222.937Z" stroke="#1F3969" stroke-width="4" stroke-miterlimit="10" stroke-linecap="round" stroke-linejoin="round"/>
<path d="M352.468 242.048H379.36" stroke="#1F3969" stroke-width="4" stroke-miterlimit="10" stroke-linecap="round" stroke-linejoin="round"/>
<path d="M430.001 166.939H240.928C236.51 166.939 232.928 163.357 232.928 158.939V10.6538C232.928 6.23581 236.51 2.65381 240.928 2.65381H430C434.418 2.65381 438 6.23581 438 10.6538V158.94C438.001 163.358 434.419 166.939 430.001 166.939Z" fill="#2D425E"/>
<path d="M438.001 22.1078H232.928V10.6538C232.928 6.23581 236.51 2.65381 240.928 2.65381H430C434.418 2.65381 438 6.23581 438 10.6538V22.1078H438.001Z" stroke="#1F3969" stroke-width="4" stroke-miterlimit="10" stroke-linecap="round" stroke-linejoin="round"/>
<path d="M438.001 25.9178H232.928V10.6538C232.928 6.23581 236.51 2.65381 240.928 2.65381H430C434.418 2.65381 438 6.23581 438 10.6538V25.9178H438.001Z" fill="#D0DDF0"/>
<path d="M438.001 25.9178H232.928V10.6538C232.928 6.23581 236.51 2.65381 240.928 2.65381H430C434.418 2.65381 438 6.23581 438 10.6538V25.9178H438.001Z" stroke="#1F3969" stroke-width="4" stroke-miterlimit="10" stroke-linecap="round" stroke-linejoin="round"/>
<path d="M438.001 25.9178H232.928V10.6538C232.928 6.23581 236.51 2.65381 240.928 2.65381H430C434.418 2.65381 438 6.23581 438 10.6538V25.9178H438.001Z" stroke="#1F3969" stroke-width="4" stroke-miterlimit="10" stroke-linecap="round" stroke-linejoin="round"/>
<path d="M430.001 166.939H240.928C236.51 166.939 232.928 163.357 232.928 158.939V10.6538C232.928 6.23581 236.51 2.65381 240.928 2.65381H430C434.418 2.65381 438 6.23581 438 10.6538V158.94C438.001 163.358 434.419 166.939 430.001 166.939Z" stroke="#1F3969" stroke-width="4" stroke-miterlimit="10" stroke-linecap="round" stroke-linejoin="round"/>
<path opacity="0.28" d="M528.689 202.345H412.673C408.255 202.345 404.673 198.763 404.673 194.345V71.3999C404.673 66.9819 408.255 63.3999 412.673 63.3999H528.689C533.107 63.3999 536.689 66.9819 536.689 71.3999V194.345C536.689 198.764 533.108 202.345 528.689 202.345Z" fill="#1F3969" stroke="#1F3969" stroke-width="4" stroke-miterlimit="10" stroke-linecap="round" stroke-linejoin="round"/>
<path d="M536.689 195.345H420.673C416.255 195.345 412.673 191.763 412.673 187.345V64.3999C412.673 59.9819 416.255 56.3999 420.673 56.3999H536.689C541.107 56.3999 544.689 59.9819 544.689 64.3999V187.345C544.689 191.764 541.108 195.345 536.689 195.345Z" fill="#2AA1FF"/>
<path d="M536.689 195.345H420.673C416.255 195.345 412.673 191.763 412.673 187.345V64.3999C412.673 59.9819 416.255 56.3999 420.673 56.3999H536.689C541.107 56.3999 544.689 59.9819 544.689 64.3999V187.345C544.689 191.764 541.108 195.345 536.689 195.345Z" stroke="#1F3969" stroke-width="4" stroke-miterlimit="10" stroke-linecap="round" stroke-linejoin="round"/>
<path opacity="0.34" d="M519.426 94.4729H437.857C435.003 94.4729 432.69 92.1599 432.69 89.3059V81.5059C432.69 78.6519 435.003 76.3389 437.857 76.3389H519.426C522.28 76.3389 524.593 78.6519 524.593 81.5059V89.3059C524.593 92.1599 522.279 94.4729 519.426 94.4729Z" stroke="white" stroke-width="2" stroke-miterlimit="10" stroke-linecap="round" stroke-linejoin="round"/>
<g opacity="0.34">
<path opacity="0.34" d="M483.58 123.78H437.937C435.083 123.78 432.77 121.467 432.77 118.613V110.813C432.77 107.959 435.083 105.646 437.937 105.646H483.58C486.434 105.646 488.747 107.959 488.747 110.813V118.613C488.747 121.467 486.434 123.78 483.58 123.78Z" stroke="white" stroke-width="2" stroke-miterlimit="10" stroke-linecap="round" stroke-linejoin="round"/>
<path opacity="0.34" d="M519.506 123.78H501.851C498.997 123.78 496.684 121.467 496.684 118.613V110.813C496.684 107.959 498.997 105.646 501.851 105.646H519.506C522.36 105.646 524.673 107.959 524.673 110.813V118.613C524.673 121.467 522.359 123.78 519.506 123.78Z" stroke="white" stroke-width="2" stroke-miterlimit="10" stroke-linecap="round" stroke-linejoin="round"/>
</g>
<path d="M432.69 154.23H524.593" stroke="white" stroke-width="2" stroke-miterlimit="10" stroke-linecap="round" stroke-linejoin="round"/>
<path d="M432.69 165.021H524.593" stroke="white" stroke-width="2" stroke-miterlimit="10" stroke-linecap="round" stroke-linejoin="round"/>
<path d="M432.69 175.811H488.667" stroke="white" stroke-width="2" stroke-miterlimit="10" stroke-linecap="round" stroke-linejoin="round"/>
<path d="M253 18.2856C255.209 18.2856 257 16.4948 257 14.2856C257 12.0765 255.209 10.2856 253 10.2856C250.791 10.2856 249 12.0765 249 14.2856C249 16.4948 250.791 18.2856 253 18.2856Z" fill="#1F3969"/>
<path d="M266.886 18.2856C269.095 18.2856 270.886 16.4948 270.886 14.2856C270.886 12.0765 269.095 10.2856 266.886 10.2856C264.677 10.2856 262.886 12.0765 262.886 14.2856C262.886 16.4948 264.677 18.2856 266.886 18.2856Z" fill="#1F3969"/>
<path d="M280.772 18.2856C282.981 18.2856 284.772 16.4948 284.772 14.2856C284.772 12.0765 282.981 10.2856 280.772 10.2856C278.563 10.2856 276.772 12.0765 276.772 14.2856C276.772 16.4948 278.563 18.2856 280.772 18.2856Z" fill="#1F3969"/>
<path d="M350.741 44.3789H363.669" stroke="white" stroke-width="4" stroke-miterlimit="10" stroke-linecap="round" stroke-linejoin="round"/>
<path d="M284.772 44.3789H341.148" stroke="#7BFFA0" stroke-width="4" stroke-miterlimit="10" stroke-linecap="round" stroke-linejoin="round"/>
<path d="M257 44.3789H276.772" stroke="#9169FF" stroke-width="4" stroke-miterlimit="10" stroke-linecap="round" stroke-linejoin="round"/>
<path d="M282.772 142.938H325.83" stroke="#9169FF" stroke-width="4" stroke-miterlimit="10" stroke-linecap="round" stroke-linejoin="round"/>
<path d="M257 142.938H270.885" stroke="#7BFFA0" stroke-width="4" stroke-miterlimit="10" stroke-linecap="round" stroke-linejoin="round"/>
<path d="M341.149 56.6987H349.164" stroke="white" stroke-width="4" stroke-miterlimit="10" stroke-linecap="round" stroke-linejoin="round"/>
<path d="M304.279 56.6987H331.506" stroke="#9169FF" stroke-width="4" stroke-miterlimit="10" stroke-linecap="round" stroke-linejoin="round"/>
<path d="M266.886 56.6987H294.63" stroke="#FFC47D" stroke-width="4" stroke-miterlimit="10" stroke-linecap="round" stroke-linejoin="round"/>
<path d="M309.83 69.019H333.668" stroke="white" stroke-width="4" stroke-miterlimit="10" stroke-linecap="round" stroke-linejoin="round"/>
<path d="M279.769 69.019H302.251" stroke="#FF5757" stroke-width="4" stroke-miterlimit="10" stroke-linecap="round" stroke-linejoin="round"/>
<path d="M313.009 81.3389H317.947" stroke="white" stroke-width="4" stroke-miterlimit="10" stroke-linecap="round" stroke-linejoin="round"/>
<path d="M293.189 81.3389H304.279" stroke="#9169FF" stroke-width="4" stroke-miterlimit="10" stroke-linecap="round" stroke-linejoin="round"/>
<path d="M266.886 81.3389H284.772" stroke="#7BFFA0" stroke-width="4" stroke-miterlimit="10" stroke-linecap="round" stroke-linejoin="round"/>
<path d="M305.288 93.6587H337.182" stroke="#FFC47D" stroke-width="4" stroke-miterlimit="10" stroke-linecap="round" stroke-linejoin="round"/>
<path d="M266.886 93.6587H295.513" stroke="#FF5757" stroke-width="4" stroke-miterlimit="10" stroke-linecap="round" stroke-linejoin="round"/>
<path d="M342.182 105.979H359.525" stroke="#9169FF" stroke-width="4" stroke-miterlimit="10" stroke-linecap="round" stroke-linejoin="round"/>
<path d="M305.288 105.979H333.037" stroke="#FF5757" stroke-width="4" stroke-miterlimit="10" stroke-linecap="round" stroke-linejoin="round"/>
<path d="M279.769 105.979H295.513" stroke="#7BFFA0" stroke-width="4" stroke-miterlimit="10" stroke-linecap="round" stroke-linejoin="round"/>
<path d="M317.893 118.299H333.037" stroke="white" stroke-width="4" stroke-miterlimit="10" stroke-linecap="round" stroke-linejoin="round"/>
<path d="M279.769 118.299H307.513" stroke="#9169FF" stroke-width="4" stroke-miterlimit="10" stroke-linecap="round" stroke-linejoin="round"/>
<path d="M357.205 130.618H374.497" stroke="white" stroke-width="4" stroke-miterlimit="10" stroke-linecap="round" stroke-linejoin="round"/>
<path d="M304.279 130.618H347.848" stroke="#FFC47D" stroke-width="4" stroke-miterlimit="10" stroke-linecap="round" stroke-linejoin="round"/>
<path d="M266.886 130.618H294.63" stroke="white" stroke-width="4" stroke-miterlimit="10" stroke-linecap="round" stroke-linejoin="round"/>
<path d="M54.895 289.523H270.36" stroke="#1F3969" stroke-width="4" stroke-miterlimit="10" stroke-linecap="round" stroke-linejoin="round"/>
<path d="M54.895 297.539H270.36" stroke="#1F3969" stroke-width="4" stroke-miterlimit="10" stroke-linecap="round" stroke-linejoin="round"/>
<path d="M272.39 282.587H52.442C53.724 285.837 54.473 289.742 54.473 293.945C54.473 298.148 53.724 302.053 52.442 305.303H272.39C271.108 302.053 270.359 298.148 270.359 293.945C270.36 289.742 271.108 285.837 272.39 282.587Z" stroke="#1F3969" stroke-width="4" stroke-miterlimit="10" stroke-linecap="round" stroke-linejoin="round"/>
<path d="M568.329 201.117L558.582 202.262L567.053 274.418L576.8 273.273L568.329 201.117Z" fill="#FFA364"/>
<path d="M568.329 201.117L558.582 202.262L559.443 209.601L569.191 208.457L568.329 201.117Z" fill="#2AA1FF"/>
<path d="M568.329 201.117L558.582 202.262L559.443 209.601L569.191 208.457L568.329 201.117Z" stroke="#1F3969" stroke-width="4" stroke-miterlimit="10" stroke-linecap="round" stroke-linejoin="round"/>
<path d="M568.329 201.117L558.582 202.262L567.053 274.418L576.8 273.273L568.329 201.117Z" stroke="#1F3969" stroke-width="4" stroke-miterlimit="10" stroke-linecap="round" stroke-linejoin="round"/>
<path d="M595.095 215.811L585.339 214.75L577.486 286.972L587.242 288.033L595.095 215.811Z" fill="#FF5252"/>
<path d="M595.095 215.811L585.339 214.75L577.486 286.972L587.242 288.033L595.095 215.811Z" stroke="#1F3969" stroke-width="4" stroke-miterlimit="10" stroke-linecap="round" stroke-linejoin="round"/>
<path d="M595.095 215.811L585.339 214.75L584.54 222.097L594.296 223.158L595.095 215.811Z" fill="#2D425E"/>
<path d="M595.095 215.811L585.339 214.75L584.54 222.097L594.296 223.158L595.095 215.811Z" stroke="#1F3969" stroke-width="4" stroke-miterlimit="10" stroke-linecap="round" stroke-linejoin="round"/>
<path d="M601.07 311.573H561.809L555.424 251.39H607.455L601.07 311.573Z" fill="#6567C3"/>
<path d="M555.424 251.39L555.541 252.495H595.182L588.915 311.573H601.07L607.455 251.39H555.424Z" fill="#6567C3"/>
<path d="M601.07 311.573H561.809L555.424 251.39H607.455L601.07 311.573Z" stroke="#1F3969" stroke-width="4" stroke-miterlimit="10" stroke-linecap="round" stroke-linejoin="round"/>
</svg>
