<svg width="70" height="70" viewBox="0 0 70 70" fill="none" xmlns="http://www.w3.org/2000/svg">
<path d="M59.4863 40.7696L59.162 40.9446C57.852 39.3549 55.5823 38.7388 53.8531 39.6152C53.847 39.6182 53.8408 39.6215 53.8348 39.6246L53.0692 40.0368C52.1561 39.2637 51.0268 38.791 49.8352 38.6834C48.6436 38.5757 47.4478 38.8383 46.411 39.4352L42.2882 41.6774H36.8022C35.6144 41.6758 34.442 41.4072 33.372 40.8914L32.6173 40.5264C30.4687 39.481 28.0727 39.0506 25.6946 39.2828C23.3165 39.5151 21.0491 40.4009 19.1434 41.8423C19.1255 41.856 19.108 41.8697 19.0913 41.8851L17.2692 43.5071C16.5807 44.1187 15.7667 44.5724 14.8844 44.8365L13.8496 41.4395C13.7984 41.2714 13.6944 41.1242 13.5532 41.0196C13.4119 40.915 13.2408 40.8585 13.065 40.8585H4.25306C4.13696 40.8585 4.02218 40.8831 3.91631 40.9308C3.81043 40.9785 3.71589 41.048 3.63892 41.135C3.56194 41.2219 3.5043 41.3242 3.4698 41.435C3.43529 41.5459 3.42472 41.6628 3.43877 41.7781L6.37603 65.8624C6.40028 66.0613 6.49648 66.2445 6.6465 66.3773C6.79651 66.5101 6.98996 66.5835 7.19033 66.5835H20.4075C20.5357 66.5835 20.6621 66.5534 20.7766 66.4958C20.891 66.4381 20.9904 66.3544 21.0667 66.2513C21.143 66.1483 21.1941 66.0289 21.2159 65.9025C21.2376 65.7762 21.2295 65.6465 21.1921 65.5239L19.4558 59.8263L24.8636 56.4083C25.5871 56.008 26.436 55.8981 27.2377 56.1011C27.2546 56.1054 27.2717 56.1092 27.2889 56.1122L38.2892 58.1378C41.2786 58.6727 44.3608 58.2376 47.0853 56.8959C47.1201 56.8787 47.1536 56.8591 47.1856 56.8371L66.212 43.7733C66.3843 43.655 66.505 43.4753 66.5493 43.271C66.5936 43.0666 66.5582 42.8531 66.4504 42.674C65.7581 41.5209 64.6477 40.6794 63.3504 40.3247C62.0531 39.9699 60.669 40.1293 59.4863 40.7696ZM54.6032 41.0742C55.6033 40.5734 56.8623 40.984 57.6665 41.7514L50.4516 45.6438L50.0277 45.867C49.7993 45.2184 49.4654 44.6118 49.0395 44.0718L54.6032 41.0742ZM47.2049 40.8712C47.2113 40.8675 47.2186 40.864 47.2243 40.8601C47.8705 40.4866 48.6051 40.2933 49.3514 40.3003C50.0978 40.3073 50.8286 40.5144 51.4677 40.9L47.7994 42.8751C47.1 42.3647 46.3021 42.0055 45.4563 41.8206L47.2049 40.8712ZM7.91603 64.9429L5.17961 42.4991H12.457L19.2998 64.9429H7.91603ZM46.3045 55.4503C43.909 56.6164 41.2053 56.9921 38.5827 56.5233L27.6095 54.5026C26.4026 54.2046 25.1274 54.3774 24.0432 54.9859C24.0305 54.9929 24.0178 55.0005 24.0054 55.0085L18.9584 58.1991L15.3627 46.4069C16.4714 46.0728 17.494 45.5009 18.3592 44.7312L20.1555 43.1316C21.8198 41.8803 23.7972 41.1128 25.8698 40.9134C27.9424 40.714 30.0298 41.0906 31.9021 42.0016L32.6567 42.3666C33.9496 42.9898 35.366 43.3144 36.8013 43.3163H44.1192C45.1946 43.3178 46.2359 43.6938 47.0642 44.3796C47.8925 45.0655 48.4561 46.0184 48.6582 47.0747L43.3542 46.8347C41.426 46.7481 39.4939 46.8374 37.582 47.1015C37.3681 47.1332 37.1755 47.2481 37.0459 47.4211C36.9163 47.5941 36.8602 47.8113 36.8898 48.0254C36.9195 48.2396 37.0325 48.4333 37.2042 48.5646C37.376 48.6959 37.5926 48.7541 37.807 48.7265C39.6198 48.476 41.4518 48.3914 43.28 48.4739L49.522 48.7562C49.5345 48.7562 49.5469 48.757 49.5592 48.757C49.7768 48.757 49.9854 48.6706 50.1392 48.5167C50.2931 48.3629 50.3795 48.1542 50.3795 47.9367C50.3795 47.8039 50.3739 47.6724 50.3658 47.5416L51.2218 47.0904L60.2656 42.2128C60.9602 41.8367 61.7595 41.7006 62.5394 41.8256C63.3193 41.9506 64.0361 42.3297 64.5783 42.9041L46.3045 55.4503Z" fill="black"/>
<path d="M10.5238 61.549C10.5238 62.0598 10.6753 62.5592 10.9591 62.9839C11.2428 63.4086 11.6462 63.7396 12.1181 63.9351C12.59 64.1305 13.1093 64.1817 13.6103 64.082C14.1112 63.9824 14.5714 63.7364 14.9326 63.3752C15.2938 63.014 15.5398 62.5539 15.6394 62.0529C15.7391 61.5519 15.6879 61.0326 15.4924 60.5607C15.297 60.0888 14.966 59.6855 14.5412 59.4017C14.1165 59.1179 13.6172 58.9664 13.1064 58.9664C12.4217 58.9672 11.7652 59.2395 11.2811 59.7237C10.7969 60.2079 10.5246 60.8643 10.5238 61.549ZM13.1064 60.6071C13.2927 60.6071 13.4749 60.6623 13.6298 60.7658C13.7847 60.8693 13.9054 61.0164 13.9767 61.1886C14.048 61.3607 14.0667 61.5501 14.0303 61.7328C13.994 61.9155 13.9042 62.0834 13.7725 62.2151C13.6408 62.3469 13.4729 62.4366 13.2902 62.4729C13.1075 62.5093 12.9181 62.4906 12.7459 62.4193C12.5738 62.348 12.4267 62.2273 12.3232 62.0724C12.2197 61.9175 12.1644 61.7354 12.1644 61.549C12.1649 61.2994 12.2643 61.0601 12.4408 60.8835C12.6174 60.707 12.8567 60.6077 13.1064 60.6073V60.6071Z" fill="black"/>
<path d="M41.2374 12.3464V9.64322C41.2297 7.99686 40.5703 6.42057 39.4034 5.25914C38.2365 4.09771 36.6571 3.44568 35.0107 3.44568C33.3644 3.44568 31.785 4.09771 30.6181 5.25914C29.4512 6.42057 28.7918 7.99686 28.7841 9.64322V12.3464C28.7918 13.9928 29.4512 15.5691 30.6181 16.7305C31.785 17.8919 33.3644 18.544 35.0107 18.544C36.6571 18.544 38.2365 17.8919 39.4034 16.7305C40.5703 15.5691 41.2297 13.9928 41.2374 12.3464ZM30.4247 12.3464V9.64322C30.4313 8.43127 30.9174 7.27121 31.7767 6.41656C32.6361 5.56191 33.7988 5.08217 35.0107 5.08217C36.2227 5.08217 37.3854 5.56191 38.2447 6.41656C39.1041 7.27121 39.5901 8.43127 39.5968 9.64322V12.3464C39.5901 13.5584 39.1041 14.7184 38.2447 15.5731C37.3854 16.4277 36.2227 16.9075 35.0107 16.9075C33.7988 16.9075 32.6361 16.4277 31.7767 15.5731C30.9174 14.7184 30.4313 13.5584 30.4247 12.3464Z" fill="black"/>
<path d="M24.9741 35.4682H45.0475C45.265 35.4682 45.4737 35.3818 45.6275 35.228C45.7813 35.0741 45.8678 34.8655 45.8678 34.6479V32.765H59.6094C59.8269 32.765 60.0356 32.6786 60.1894 32.5248C60.3433 32.3709 60.4297 32.1623 60.4297 31.9447V26.6203C60.4288 25.058 59.8332 23.5546 58.7639 22.4156C57.6947 21.2765 56.2319 20.5872 54.6727 20.4877C54.2352 20.4556 54.0103 20.7325 53.8279 20.955C53.465 21.3984 53.0057 21.7531 52.4849 21.9921C51.9641 22.2311 51.3957 22.3481 50.8228 22.3341C50.25 22.3201 49.6879 22.1755 49.1794 21.9114C48.6709 21.6473 48.2295 21.2705 47.8886 20.8099C47.8103 20.7039 47.7076 20.6183 47.5892 20.5604C47.4708 20.5025 47.3402 20.474 47.2084 20.4773C46.1428 20.5012 45.1022 20.8048 44.1909 21.3576C43.5893 20.658 42.8533 20.0863 42.0267 19.6762C41.2 19.2662 40.2995 19.0263 39.3784 18.9707C38.9546 18.9534 38.7402 19.2107 38.5325 19.4628C38.1067 19.9832 37.5677 20.3996 36.9566 20.68C36.3455 20.9605 35.6784 21.0978 35.0062 21.0814C34.334 21.065 33.6744 20.8953 33.0777 20.5853C32.481 20.2753 31.9629 19.8332 31.563 19.2926C31.4848 19.1865 31.3822 19.1008 31.2637 19.0429C31.1453 18.985 31.0146 18.9566 30.8829 18.9601C29.0839 19.0017 27.3732 19.748 26.1189 21.0383C26.0153 21.1442 25.917 21.254 25.8211 21.3654C24.9741 20.8497 24.0141 20.5484 23.0243 20.4874C22.5883 20.4553 22.3617 20.7323 22.1795 20.9547C21.8166 21.3981 21.3572 21.7529 20.8365 21.9918C20.3157 22.2308 19.7472 22.3478 19.1744 22.3338C18.6016 22.3198 18.0395 22.1752 17.5311 21.9111C17.0226 21.647 16.5811 21.2703 16.2403 20.8097C16.1618 20.7038 16.0591 20.6183 15.9407 20.5604C15.8224 20.5025 15.6918 20.4739 15.5601 20.477C13.9578 20.5178 12.4348 21.1829 11.3158 22.3305C10.1969 23.4782 9.57054 25.0175 9.57031 26.6203V31.9447C9.57031 32.1623 9.65674 32.3709 9.81058 32.5248C9.96442 32.6786 10.1731 32.765 10.3906 32.765H24.1538V34.6479C24.1538 34.8655 24.2403 35.0741 24.3941 35.228C24.5479 35.3818 24.7566 35.4682 24.9741 35.4682ZM46.8582 22.1439C47.3639 22.7179 47.9857 23.1781 48.6825 23.4939C49.3793 23.8098 50.1352 23.9741 50.9003 23.9761C51.6653 23.9781 52.4221 23.8177 53.1205 23.5055C53.8189 23.1934 54.4432 22.7365 54.9519 22.1651C56.0186 22.326 56.9923 22.864 57.6964 23.6814C58.4004 24.4988 58.7881 25.5415 58.7891 26.6203V31.1244H45.8678V25.862C45.8686 24.7696 45.6087 23.6927 45.1097 22.721C45.6457 22.4084 46.2414 22.2118 46.8582 22.1439ZM30.5293 20.6256C31.0965 21.2822 31.7981 21.8094 32.5866 22.1714C33.3752 22.5334 34.2322 22.7218 35.0999 22.7238C35.9676 22.7259 36.8255 22.5416 37.6158 22.1833C38.406 21.8251 39.1101 21.3013 39.6804 20.6474C40.94 20.8216 42.0941 21.4454 42.9298 22.4038C43.7656 23.3621 44.2265 24.5904 44.2277 25.862V33.8276H25.7945V25.862C25.8026 24.5599 26.2898 23.3064 27.1631 22.3407C28.0364 21.3749 29.2346 20.7644 30.5293 20.6256ZM11.2109 31.1244V26.6203C11.2179 25.5151 11.6281 24.4504 12.3645 23.6263C13.101 22.8021 14.113 22.2752 15.2105 22.1444C15.7162 22.7183 16.338 23.1783 17.0347 23.494C17.7314 23.8097 18.4872 23.974 19.2521 23.9759C20.017 23.9779 20.7736 23.8175 21.4719 23.5053C22.1703 23.1932 22.7944 22.7364 23.303 22.1651C23.8678 22.2495 24.4113 22.4413 24.904 22.73C24.4094 23.6998 24.1523 24.7733 24.1538 25.862V31.1244H11.2109Z" fill="black"/>
<path d="M56.3765 14.7901V12.4239C56.3765 10.9513 55.7915 9.53901 54.7502 8.49773C53.709 7.45645 52.2967 6.87146 50.8241 6.87146C49.3515 6.87146 47.9392 7.45645 46.8979 8.49773C45.8567 9.53901 45.2717 10.9513 45.2717 12.4239V14.7901C45.2717 16.2627 45.8567 17.6749 46.8979 18.7162C47.9392 19.7575 49.3515 20.3425 50.8241 20.3425C52.2967 20.3425 53.709 19.7575 54.7502 18.7162C55.7915 17.6749 56.3765 16.2627 56.3765 14.7901ZM46.9123 14.7901V12.4239C46.9123 11.3864 47.3244 10.3914 48.058 9.65782C48.7916 8.92422 49.7866 8.51208 50.8241 8.51208C51.8616 8.51208 52.8565 8.92422 53.5901 9.65782C54.3237 10.3914 54.7359 11.3864 54.7359 12.4239V14.7901C54.7359 15.8275 54.3237 16.8225 53.5901 17.5561C52.8565 18.2897 51.8616 18.7019 50.8241 18.7019C49.7866 18.7019 48.7916 18.2897 48.058 17.5561C47.3244 16.8225 46.9123 15.8275 46.9123 14.7901Z" fill="black"/>
<path d="M24.7283 14.7901V12.4239C24.7283 11.6947 24.5847 10.9727 24.3057 10.2991C24.0266 9.62541 23.6176 9.01332 23.102 8.49773C22.5865 7.98214 21.9744 7.57315 21.3007 7.29411C20.6271 7.01508 19.905 6.87146 19.1759 6.87146C18.4467 6.87146 17.7247 7.01508 17.0511 7.29411C16.3774 7.57315 15.7653 7.98214 15.2497 8.49773C14.7341 9.01332 14.3252 9.62541 14.0461 10.2991C13.7671 10.9727 13.6235 11.6947 13.6235 12.4239V14.7901C13.6235 15.5192 13.7671 16.2412 14.0461 16.9149C14.3252 17.5885 14.7341 18.2006 15.2497 18.7162C15.7653 19.2318 16.3774 19.6408 17.0511 19.9198C17.7247 20.1989 18.4467 20.3425 19.1759 20.3425C19.905 20.3425 20.6271 20.1989 21.3007 19.9198C21.9744 19.6408 22.5865 19.2318 23.102 18.7162C23.6176 18.2006 24.0266 17.5885 24.3057 16.9149C24.5847 16.2412 24.7283 15.5192 24.7283 14.7901ZM15.2641 14.7901V12.4239C15.2641 11.3864 15.6762 10.3914 16.4098 9.65782C17.1434 8.92422 18.1384 8.51208 19.1759 8.51208C20.2134 8.51208 21.2083 8.92422 21.9419 9.65782C22.6756 10.3914 23.0877 11.3864 23.0877 12.4239V14.7901C23.0877 15.3038 22.9865 15.8125 22.7899 16.2871C22.5933 16.7617 22.3052 17.1929 21.9419 17.5561C21.5787 17.9194 21.1475 18.2075 20.6729 18.4041C20.1983 18.6007 19.6896 18.7019 19.1759 18.7019C18.6622 18.7019 18.1535 18.6007 17.6789 18.4041C17.2043 18.2075 16.7731 17.9194 16.4098 17.5561C16.0466 17.1929 15.7585 16.7617 15.5619 16.2871C15.3653 15.8125 15.2641 15.3038 15.2641 14.7901Z" fill="black"/>
</svg>
