<svg width="64" height="64" viewBox="0 0 64 64" fill="none" xmlns="http://www.w3.org/2000/svg">
<path d="M25.9 19.7999C26 19.7999 27.6 19.4999 28.2 19.2999C28.7 19.1999 29.1 18.6999 29 18.1999C28.9 17.6999 28.4 17.2999 27.9 17.3999C27.2 17.4999 26.4 17.6999 25.7 17.8999C25.2 17.9999 24.8 18.5999 25 19.0999C25.1 19.4999 25.5 19.7999 25.9 19.7999Z" fill="black"/>
<path d="M62.7 31.2C62 30.7 46.2 17 32 17C31.4 17 31 17.4 31 18C31 18.6 31.4 19 32 19C43.6 19 56.9 29.1 60.4 32C56.9 34.9 43.6 45 32 45C20.4 45 7.1 34.9 3.6 32C6.2 29.9 13.9 24 22.4 20.9C22.9 20.7 23.2 20.1 23 19.6C22.8 19.1 22.2 18.8 21.7 19C11 22.9 1.7 30.9 1.3 31.2C1.1 31.4 1 31.7 1 32C1 32.3 1.1 32.6 1.3 32.8C2 33.3 17.8 47 32 47C46.2 47 62 33.3 62.7 32.8C62.9 32.6 63 32.3 63 32C63 31.7 62.9 31.4 62.7 31.2Z" fill="black"/>
<path d="M32 43C32.6 43 33 42.6 33 42C33 41.4 32.6 41 32 41C27 41 23 37 23 32C23 27 27 23 32 23C37 23 41 27 41 32C41 35.4 39.1 38.5 36 40.1C35.5 40.3 35.3 40.9 35.5 41.4C35.7 41.9 36.3 42.1 36.8 41.9C40.7 40 43 36.2 43 32C43 25.9 38.1 21 32 21C25.9 21 21 25.9 21 32C21 38.1 25.9 43 32 43ZM32 7C32.6 7 33 6.6 33 6V2C33 1.4 32.6 1 32 1C31.4 1 31 1.4 31 2V6C31 6.6 31.4 7 32 7ZM13.1 12.4C13.3 12.8 13.9 13.2 14.4 12.8C14.9 12.5 15.1 12 14.8 11.5L12.8 7.5C12.6 7 12 6.8 11.5 7.1C11 7.3 10.8 7.9 11.1 8.4L13.1 12.4ZM49.6 12.9C50.1 13.2 50.8 12.8 50.9 12.5L52.9 8.5C53.1 8 52.9 7.4 52.5 7.2C52 7 51.4 7.2 51.2 7.6L49.2 11.6C48.9 12 49.1 12.6 49.6 12.9ZM32 57C31.4 57 31 57.4 31 58V62C31 62.6 31.4 63 32 63C32.6 63 33 62.6 33 62V58C33 57.4 32.6 57 32 57ZM14.4 51.1C13.9 50.9 13.3 51.1 13.1 51.5L11.1 55.5C10.9 56 11.1 56.6 11.5 56.8C12 57.1 12.7 56.7 12.8 56.4L14.8 52.4C15.1 52 14.9 51.4 14.4 51.1ZM50.9 51.6C50.7 51.1 50.1 50.9 49.6 51.2C49.1 51.4 48.9 52 49.2 52.5L51.2 56.5C51.4 56.9 51.9 57.3 52.5 56.9C53 56.7 53.2 56.1 52.9 55.6L50.9 51.6Z" fill="black"/>
<path d="M37 32C37 32.6 37.4 33 38 33C38.6 33 39 32.6 39 32C39 28.1 35.9 25 32 25C31.4 25 31 25.4 31 26C31 26.6 31.4 27 32 27C34.8 27 37 29.2 37 32ZM27.2 33.6C27 33.1 26.4 32.8 25.9 33C25.4 33.2 25.1 33.8 25.3 34.3C26.4 37.1 29.1 38.9 31.9 38.9C32.5 38.9 32.9 38.5 32.9 37.9C32.9 37.3 32.5 36.9 31.9 36.9C29.9 37 28 35.6 27.2 33.6ZM14.9 27.7C14.6 27.2 14 27.1 13.5 27.4C10.4 29.3 7.5 31.2 7.5 31.2C7.2 31.3 7 31.7 7 32C7 32.3 7.2 32.6 7.4 32.8L10.4 34.8C10.6 34.9 11.3 35.2 11.8 34.5C12.1 34 12 33.4 11.5 33.1L9.8 32C10.9 31.3 12.7 30.2 14.5 29C15 28.8 15.1 28.1 14.9 27.7Z" fill="black"/>
</svg>
