<svg width="37" height="37" viewBox="0 0 37 37" fill="none" xmlns="http://www.w3.org/2000/svg">
<path d="M32.375 0H4.625C2.07431 0 0 2.07431 0 4.625V32.375C0 34.9257 2.07431 37 4.625 37H32.375C34.9257 37 37 34.9257 37 32.375V4.625C37 2.07431 34.9257 0 32.375 0Z" fill="white"/>
<path fill-rule="evenodd" clip-rule="evenodd" d="M31.2188 18.5H25.4375V13.875C25.4375 12.5985 26.4735 12.7188 27.75 12.7188H30.0625V6.9375H25.4375C23.5976 6.9375 21.833 7.66841 20.5319 8.96945C19.2309 10.2705 18.5 12.0351 18.5 13.875V18.5H13.875V24.2812H18.5V37H25.4375V24.2812H28.9062L31.2188 18.5Z" fill="#FFBE55"/>
</svg>
